<?xml version="1.0" standalone="no"?>
<!DOCTYPE svg PUBLIC "-//W3C//DTD SVG 20010904//EN"
 "http://www.w3.org/TR/2001/REC-SVG-20010904/DTD/svg10.dtd">
<svg version="1.0" xmlns="http://www.w3.org/2000/svg"
 width="538.000000pt" height="538.000000pt" viewBox="0 0 538.000000 538.000000"
 preserveAspectRatio="xMidYMid meet">
<metadata>
Created by potrace 1.14, written by Peter Selinger 2001-2017
</metadata>
<g transform="translate(0.000000,538.000000) scale(0.100000,-0.100000)"
fill="#000000" stroke="none">
<path d="M0 3520 l0 -1160 2690 0 2690 0 0 1160 0 1160 -2690 0 -2690 0 0
-1160z"/>
<path d="M1070 1895 c-221 -56 -386 -220 -444 -441 -24 -92 -17 -250 16 -341
68 -190 227 -335 423 -387 88 -23 250 -16 335 13 195 68 348 233 396 429 9 34
10 236 2 277 -18 91 -90 218 -164 292 -74 72 -202 144 -284 160 -68 12 -229
11 -280 -2z m225 -29 c81 -12 140 -32 193 -67 24 -16 46 -29 50 -29 17 0 108
-99 147 -160 128 -196 114 -463 -32 -649 -53 -67 -144 -137 -223 -172 -91 -39
-261 -54 -350 -29 -80 21 -189 80 -246 133 -51 46 -134 154 -134 174 0 4 -6
20 -14 35 -33 63 -48 214 -30 308 4 25 8 47 9 50 0 3 11 32 25 65 72 180 248
317 440 342 25 3 46 6 48 8 3 2 71 -3 117 -9z"/>
<path d="M1176 1795 c-3 -13 -9 -31 -13 -41 -5 -13 -3 -15 8 -8 20 12 39 14
39 3 0 -5 4 -9 9 -9 12 0 -11 69 -25 74 -7 3 -15 -6 -18 -19z m24 -15 c0 -5
-4 -10 -10 -10 -5 0 -10 5 -10 10 0 6 5 10 10 10 6 0 10 -4 10 -10z"/>
<path d="M1253 1804 c-4 -11 2 -23 16 -33 12 -9 19 -20 15 -24 -4 -4 -16 0
-26 10 -10 9 -18 11 -18 5 0 -14 31 -31 48 -25 19 7 14 31 -8 43 -11 6 -18 15
-14 21 4 6 11 6 20 -2 8 -7 14 -7 14 -1 0 8 -22 22 -36 22 -3 0 -7 -7 -11 -16z"/>
<path d="M1051 1786 c-10 -12 -9 -17 6 -24 10 -6 21 -10 26 -11 12 -2 3 -16
-10 -15 -7 1 -13 -3 -13 -8 0 -5 10 -8 23 -6 14 2 23 11 25 26 3 18 -1 22 -22
22 -14 0 -26 5 -26 11 0 6 9 9 20 6 11 -3 18 -1 14 4 -8 14 -30 11 -43 -5z"/>
<path d="M1343 1793 c-18 -7 -16 -24 4 -39 10 -7 15 -16 11 -20 -4 -4 -15 -1
-24 7 -15 12 -17 12 -12 -1 6 -19 37 -25 52 -10 8 9 5 16 -12 30 -12 10 -18
21 -13 24 5 4 12 2 16 -4 3 -5 11 -10 17 -10 7 0 6 6 -2 15 -13 16 -17 17 -37
8z"/>
<path d="M977 1763 c-15 -14 -7 -44 11 -42 31 3 43 -1 37 -12 -4 -6 -13 -8
-21 -5 -8 3 -14 1 -14 -4 0 -15 26 -12 40 5 17 20 2 38 -27 32 -15 -3 -22 0
-20 7 3 6 10 10 16 9 6 -2 11 2 11 7 0 11 -23 14 -33 3z"/>
<path d="M1405 1739 c-16 -31 -16 -33 0 -45 9 -7 23 -10 30 -8 14 6 38 54 31
62 -3 2 -11 -7 -17 -22 -12 -25 -29 -33 -42 -20 -3 4 1 17 10 30 9 14 13 27
10 30 -3 3 -13 -9 -22 -27z"/>
<path d="M910 1706 c0 -8 5 -27 11 -43 l11 -28 9 24 c6 15 14 21 24 17 26 -10
16 9 -14 27 -35 21 -41 21 -41 3z m35 -16 c3 -5 -1 -10 -10 -10 -9 0 -13 5
-10 10 3 6 8 10 10 10 2 0 7 -4 10 -10z"/>
<path d="M1480 1698 c-23 -25 -28 -47 -6 -29 17 14 29 0 20 -23 -5 -12 -2 -15
10 -10 9 3 14 10 11 14 -3 4 2 10 10 14 21 8 19 33 -5 46 -15 8 -23 6 -40 -12z
m45 -7 c10 -17 -12 -21 -25 -6 -10 12 -10 15 3 15 9 0 18 -4 22 -9z"/>
<path d="M1105 1677 c-106 -36 -188 -106 -241 -208 -25 -48 -28 -64 -29 -154
0 -93 2 -105 33 -167 83 -168 260 -251 440 -204 108 27 193 98 242 201 55 114
55 213 1 330 -36 76 -96 136 -178 177 -54 26 -79 32 -147 35 -48 2 -97 -3
-121 -10z m197 -234 c144 -300 160 -334 156 -339 -3 -2 -58 15 -124 37 -65 23
-123 41 -129 41 -5 0 -63 -19 -128 -42 -65 -23 -121 -40 -123 -37 -3 3 -1 13
5 24 16 28 222 455 232 481 5 12 11 22 14 22 3 0 47 -84 97 -187z"/>
<path d="M1114 1343 c-45 -93 -81 -169 -80 -170 1 -1 40 12 87 28 l85 30 0
140 c0 76 -2 139 -5 139 -3 0 -43 -75 -87 -167z"/>
<path d="M852 1668 c-17 -17 -16 -21 14 -54 21 -25 25 -26 23 -9 -1 11 2 28 6
39 12 28 -21 46 -43 24z m26 -29 c-17 -10 -28 -2 -21 17 4 11 8 12 20 3 11
-10 11 -14 1 -20z"/>
<path d="M1543 1634 c-32 -14 -45 -26 -21 -21 6 1 17 -8 23 -21 12 -23 12 -23
29 12 25 52 23 54 -31 30z m27 -14 c0 -5 -4 -10 -10 -10 -5 0 -10 5 -10 10 0
6 5 10 10 10 6 0 10 -4 10 -10z"/>
<path d="M806 1613 c-3 -4 1 -17 10 -31 15 -23 15 -24 -5 -17 -36 11 -45 -6
-14 -26 37 -25 51 -24 22 1 l-24 20 26 -9 c36 -13 43 -3 16 20 -12 10 -17 18
-10 19 6 0 15 -4 18 -10 3 -5 11 -10 17 -10 6 0 5 6 -2 16 -18 20 -46 35 -54
27z"/>
<path d="M1587 1574 c-16 -9 -27 -18 -24 -21 3 -2 15 0 26 6 19 11 20 10 11
-14 -16 -42 -12 -46 25 -23 38 22 42 38 4 18 -23 -13 -23 -15 -3 35 8 19 -3
18 -39 -1z"/>
<path d="M758 1509 c-28 -16 -23 -57 7 -65 45 -11 71 29 39 60 -18 19 -23 19
-46 5z m48 -31 c1 -9 -5 -19 -14 -23 -19 -7 -47 19 -37 35 10 16 48 8 51 -12z"/>
<path d="M1616 1484 c-12 -12 -13 -20 -6 -35 6 -10 15 -19 20 -19 6 0 5 9 -2
20 -11 17 -10 22 2 30 21 14 34 7 40 -21 5 -22 7 -22 13 -5 15 39 -36 62 -67
30z"/>
<path d="M723 1409 c-25 -25 15 -67 52 -53 19 8 25 41 10 54 -9 8 -11 4 -7
-15 4 -22 1 -25 -23 -25 -24 0 -26 3 -21 25 7 28 5 30 -11 14z"/>
<path d="M1655 1411 c-16 -4 -29 -10 -27 -14 1 -4 3 -17 3 -29 1 -19 3 -17 9
7 7 29 8 29 15 8 9 -28 25 -31 18 -3 -3 11 0 20 6 20 6 0 11 -9 11 -20 0 -11
4 -20 9 -20 9 0 2 48 -8 53 -3 2 -19 1 -36 -2z"/>
<path d="M726 1244 c-7 -19 1 -34 19 -34 18 0 26 25 12 39 -15 15 -24 14 -31
-5z"/>
<path d="M1660 1241 c-7 -14 -6 -20 6 -25 26 -10 34 -7 34 13 0 26 -27 34 -40
12z"/>
<path d="M1610 1110 c0 -5 5 -10 11 -10 5 0 7 -5 4 -10 -4 -6 -10 -8 -15 -5
-9 6 -60 -55 -60 -71 0 -5 4 -3 8 4 7 9 14 8 32 -8 13 -11 26 -18 29 -14 3 3
-5 13 -17 23 -16 12 -21 22 -16 35 6 15 15 17 45 13 l39 -5 -23 28 c-23 30
-37 37 -37 20z"/>
<path d="M783 1093 c-18 -9 -33 -20 -33 -25 0 -5 18 1 40 12 22 11 40 23 40
25 0 8 -13 5 -47 -12z"/>
<path d="M817 1073 c-4 -4 -4 -23 -1 -42 7 -33 6 -35 -10 -22 -9 8 -15 20 -12
28 3 7 1 13 -4 13 -15 0 -12 -36 5 -50 27 -22 45 -5 38 36 -4 27 -3 35 5 30 7
-4 12 -14 12 -22 0 -8 5 -14 10 -14 13 0 13 6 0 31 -11 19 -31 25 -43 12z"/>
<path d="M856 994 c-24 -23 -20 -53 9 -66 22 -10 29 -9 47 10 20 19 20 24 8
47 -15 28 -41 32 -64 9z m57 -10 c11 -12 -13 -44 -33 -44 -25 0 -35 17 -20 35
13 15 42 20 53 9z"/>
<path d="M1530 1004 c0 -13 48 -59 55 -52 3 2 -9 17 -25 33 -17 16 -30 24 -30
19z"/>
<path d="M1480 963 c0 -7 11 -25 24 -40 24 -27 25 -27 43 -9 17 18 17 18 -3
12 -17 -5 -27 0 -43 21 -11 15 -21 23 -21 16z"/>
<path d="M965 923 c-14 -14 -14 -17 0 -33 18 -19 8 -35 -12 -19 -9 9 -13 8
-13 0 0 -6 7 -14 17 -18 20 -8 65 40 57 61 -9 22 -32 27 -49 9z m35 -19 c0 -9
-5 -14 -12 -12 -18 6 -21 28 -4 28 9 0 16 -7 16 -16z"/>
<path d="M1435 898 c4 -18 11 -37 17 -43 7 -7 8 0 3 24 -5 24 -4 31 4 27 6 -4
9 -11 6 -15 -2 -5 6 -8 19 -8 l25 0 -29 23 c-39 33 -51 31 -45 -8z"/>
<path d="M1024 885 c-20 -31 -15 -59 12 -63 14 -2 24 5 32 22 22 49 -16 84
-44 41z m36 -12 c0 -10 -5 -25 -10 -33 -14 -22 -30 0 -19 28 10 26 29 29 29 5z"/>
<path d="M1390 906 c0 -2 5 -17 10 -31 6 -15 8 -31 5 -35 -9 -15 -35 1 -35 20
0 19 -13 33 -22 24 -10 -9 17 -54 36 -60 26 -9 39 9 31 45 -5 25 -25 54 -25
37z"/>
<path d="M1102 872 c-11 -11 -19 -29 -17 -39 2 -10 4 -22 4 -26 1 -5 11 -7 23
-5 29 4 46 54 25 75 -13 14 -17 13 -35 -5z m28 -26 c0 -14 -5 -28 -10 -31 -13
-8 -24 20 -16 40 9 24 26 17 26 -9z"/>
<path d="M1180 865 c-9 -11 -10 -15 -1 -15 7 0 10 -8 7 -17 -3 -10 -1 -25 4
-33 7 -11 10 -2 10 33 0 52 -2 54 -20 32z"/>
<path d="M1273 863 c-3 -10 -8 -21 -10 -25 -8 -15 36 -47 56 -41 26 7 32 25
17 54 -15 30 -54 38 -63 12z m46 -7 c15 -18 3 -48 -18 -44 -22 4 -24 58 -2 58
5 0 14 -6 20 -14z"/>
<path d="M2570 1894 c-130 -28 -261 -111 -353 -225 -108 -134 -151 -356 -102
-522 10 -31 58 -141 65 -147 3 -3 16 -22 29 -42 56 -92 214 -199 344 -234 58
-15 249 -13 311 4 117 32 267 139 336 240 28 42 75 139 83 173 55 225 3 427
-153 590 -31 32 -122 99 -136 99 -8 0 -14 4 -14 9 0 4 -37 21 -82 36 -99 33
-228 40 -328 19z m287 -40 c128 -37 247 -123 318 -230 34 -51 71 -132 80 -174
2 -8 7 -33 12 -55 16 -74 5 -180 -26 -270 -62 -175 -195 -303 -376 -361 -90
-29 -247 -26 -343 5 -148 48 -265 149 -331 285 -63 130 -78 240 -51 373 24
115 70 195 167 290 140 137 360 192 550 137z"/>
<path d="M2663 1793 c-7 -15 -13 -35 -13 -46 0 -17 1 -17 16 -3 12 12 20 13
35 6 23 -13 23 -10 5 35 -18 42 -27 44 -43 8z m27 -13 c0 -5 -5 -10 -11 -10
-5 0 -7 5 -4 10 3 6 8 10 11 10 2 0 4 -4 4 -10z"/>
<path d="M2740 1806 c0 -8 10 -22 22 -30 12 -9 19 -19 15 -22 -4 -4 -13 -1
-21 5 -10 8 -16 9 -21 1 -3 -5 4 -14 17 -19 31 -12 58 10 39 33 -8 10 -9 16
-1 21 16 10 1 25 -26 25 -14 0 -24 -6 -24 -14z m40 -6 c0 -5 -4 -10 -10 -10
-5 0 -10 5 -10 10 0 6 5 10 10 10 6 0 10 -4 10 -10z"/>
<path d="M2536 1791 c-13 -14 -14 -20 -4 -28 7 -6 21 -9 31 -8 9 2 17 -3 17
-10 0 -9 -8 -11 -22 -8 -18 5 -20 3 -12 -7 17 -18 49 -8 49 15 0 13 -8 21 -22
23 -13 2 -23 8 -23 13 0 5 10 9 23 9 18 0 19 2 7 10 -21 13 -25 13 -44 -9z"/>
<path d="M2830 1795 c-8 -10 -6 -18 11 -34 13 -11 20 -24 16 -27 -4 -4 -16 1
-27 11 -11 10 -20 14 -20 8 0 -5 8 -17 18 -26 16 -15 21 -15 38 -3 19 14 18
15 -5 40 -14 14 -19 26 -13 26 6 0 14 -4 17 -10 8 -12 25 -13 25 -2 0 5 -11
14 -24 20 -19 8 -27 8 -36 -3z"/>
<path d="M2905 1747 c-15 -29 -16 -38 -6 -50 16 -21 40 -15 62 14 21 27 24 39
9 39 -6 0 -16 -11 -22 -25 -6 -14 -17 -25 -25 -25 -16 0 -17 14 -2 41 6 11 9
25 7 31 -2 5 -12 -6 -23 -25z"/>
<path d="M2446 1754 c-8 -22 3 -37 24 -31 10 2 24 1 31 -4 10 -6 11 -9 2 -9
-23 0 -28 -2 -39 -11 -8 -6 -22 -3 -42 8 -17 10 -33 15 -36 12 -8 -8 13 -77
26 -85 7 -5 9 -2 5 9 -6 17 24 42 37 30 3 -3 6 -1 6 5 0 7 11 12 25 12 29 0
55 37 31 46 -7 3 -20 4 -27 2 -8 -1 -15 2 -16 7 -2 6 1 10 6 10 5 0 13 3 17 8
4 4 -4 7 -18 7 -14 0 -29 -7 -32 -16z m-31 -64 c3 -5 1 -10 -4 -10 -6 0 -11 5
-11 10 0 6 2 10 4 10 3 0 8 -4 11 -10z"/>
<path d="M2992 1707 c-34 -39 -37 -50 -12 -42 20 6 22 4 17 -14 -7 -27 3 -26
31 3 27 29 27 37 3 58 -18 15 -20 15 -39 -5z m36 -18 c-2 -6 -8 -10 -13 -10
-5 0 -11 4 -13 10 -2 6 4 11 13 11 9 0 15 -5 13 -11z"/>
<path d="M2645 1698 c-115 -15 -232 -93 -290 -192 -60 -103 -69 -254 -20 -360
28 -61 116 -159 170 -188 278 -151 618 69 592 383 -14 165 -141 313 -299 348
-74 17 -91 18 -153 9z m98 -160 c25 -51 82 -169 127 -261 45 -93 80 -171 77
-173 -2 -3 -51 12 -108 32 -57 20 -113 38 -124 41 -12 2 -76 -14 -144 -36 -68
-23 -126 -40 -128 -38 -2 2 25 62 60 133 35 71 92 189 127 262 35 72 65 132
66 132 2 0 23 -42 47 -92z"/>
<path d="M2675 1497 c-8 -19 -46 -98 -84 -177 -39 -79 -69 -145 -67 -148 3 -2
42 9 88 26 l83 29 0 152 c1 83 -1 151 -3 151 -1 0 -9 -15 -17 -33z"/>
<path d="M2328 1669 c-24 -14 -22 -28 8 -55 30 -29 37 -30 29 -5 -3 11 -1 22
5 26 7 4 7 12 0 26 -12 22 -18 23 -42 8z m23 -22 c-1 -12 -15 -9 -19 4 -3 6 1
10 8 8 6 -3 11 -8 11 -12z"/>
<path d="M3052 1634 c-31 -13 -47 -39 -17 -28 13 6 20 -6 16 -28 -3 -20 19 -4
37 26 24 41 12 51 -36 30z m20 -26 c-7 -7 -12 -8 -12 -2 0 14 12 26 19 19 2
-3 -1 -11 -7 -17z"/>
<path d="M2275 1610 c-7 -11 5 -40 17 -40 6 0 8 -6 5 -14 -3 -8 2 -16 14 -19
20 -5 26 7 9 18 -5 3 -10 11 -10 17 0 7 5 6 14 -1 9 -7 17 -8 20 -2 3 5 -10
18 -29 30 -19 11 -37 16 -40 11z"/>
<path d="M3098 1572 c-31 -19 -38 -38 -10 -27 9 4 23 8 31 9 7 1 17 10 23 19
12 22 -7 21 -44 -1z"/>
<path d="M2245 1559 c-4 -6 -5 -12 -4 -13 23 -17 55 -36 61 -36 17 0 7 19 -13
25 -15 5 -18 10 -9 15 8 5 7 9 -5 14 -22 8 -23 8 -30 -5z"/>
<path d="M3102 1526 c-6 -13 -8 -26 -5 -29 7 -7 73 33 73 44 0 13 -14 11 -28
-3 -10 -10 -14 -10 -21 0 -5 9 -11 6 -19 -12z"/>
<path d="M2210 1491 c-14 -26 -3 -50 26 -57 42 -11 72 34 42 64 -18 18 -56 14
-68 -7z m64 -9 c2 -4 1 -14 -3 -21 -11 -18 -45 -10 -49 12 -3 12 3 17 22 17
14 0 27 -4 30 -8z"/>
<path d="M3130 1482 c-19 -16 -21 -22 -11 -40 6 -12 19 -22 29 -22 16 1 16 1
0 11 -22 12 -23 35 -3 43 25 9 46 -4 40 -25 -4 -11 -2 -19 4 -19 19 0 12 49
-8 60 -25 13 -25 13 -51 -8z"/>
<path d="M2185 1399 c-4 -5 -4 -21 -1 -35 5 -19 13 -24 40 -24 26 0 35 5 40
22 3 14 -1 29 -10 38 -14 13 -15 12 -9 -11 5 -21 2 -27 -14 -32 -23 -6 -49 17
-31 28 13 8 13 25 1 25 -6 0 -13 -5 -16 -11z"/>
<path d="M3151 1396 c-13 -5 -20 -15 -16 -24 3 -7 5 -20 5 -28 0 -9 4 -13 9
-10 5 3 7 15 4 26 -3 11 0 20 6 20 6 0 11 -7 11 -15 0 -8 5 -15 11 -15 6 0 9
7 6 15 -4 8 -2 17 3 20 4 3 13 -7 19 -22 10 -28 10 -28 8 6 -3 38 -24 46 -66
27z"/>
<path d="M2196 1243 c-8 -20 1 -33 19 -27 22 9 25 32 5 37 -11 3 -21 -1 -24
-10z"/>
<path d="M3163 1244 c-8 -20 8 -36 26 -25 15 10 8 41 -9 41 -6 0 -13 -7 -17
-16z"/>
<path d="M2259 1195 c-3 -2 -16 -6 -29 -8 -13 -2 -26 -9 -28 -15 -2 -8 6 -8
29 -2 34 10 45 17 37 25 -2 3 -7 3 -9 0z"/>
<path d="M3122 1168 c-10 -28 -10 -35 3 -44 22 -16 19 -24 -10 -24 -32 0 -32
-14 0 -28 36 -17 53 -15 29 3 -11 9 -14 15 -6 16 6 1 16 2 21 3 23 3 21 16 -3
27 -14 7 -26 18 -26 26 0 16 14 17 40 3 11 -6 21 -6 25 -1 3 5 -5 13 -17 17
-13 4 -28 13 -33 21 -8 11 -13 7 -23 -19z"/>
<path d="M2253 1157 c-4 -7 -8 -18 -8 -24 0 -7 -4 -12 -10 -11 -5 0 -9 11 -7
22 2 18 1 19 -8 4 -14 -22 -2 -48 21 -48 14 0 19 7 19 25 0 14 4 25 10 25 15
0 7 -42 -13 -62 -14 -14 -15 -23 -7 -38 14 -25 42 -26 64 -1 17 18 17 20 -5
42 -13 13 -22 33 -21 45 3 24 -23 40 -35 21z m52 -87 c0 -8 -10 -16 -22 -18
-22 -3 -32 16 -16 32 12 11 38 2 38 -14z"/>
<path d="M3069 1054 c-11 -14 -10 -19 10 -35 13 -11 28 -19 35 -19 15 0 38 38
27 44 -5 3 -11 -4 -14 -15 -3 -12 -10 -18 -16 -14 -8 4 -8 13 0 28 l12 22 -23
-20 -23 -20 7 23 c9 26 4 28 -15 6z"/>
<path d="M2334 1005 c3 -8 -2 -19 -12 -24 -9 -5 -14 -12 -11 -16 4 -3 19 5 34
18 28 24 28 24 6 30 -17 4 -21 2 -17 -8z"/>
<path d="M3040 1014 c0 -3 5 -14 11 -25 9 -19 9 -19 -10 -10 -24 13 -31 14
-31 3 0 -13 40 -52 53 -52 7 0 3 8 -8 16 -19 15 -19 15 6 9 37 -9 49 23 19 47
-22 18 -40 23 -40 12z m45 -34 c3 -5 1 -10 -4 -10 -6 0 -11 5 -11 10 0 6 2 10
4 10 3 0 8 -4 11 -10z"/>
<path d="M2385 961 c3 -5 1 -12 -5 -16 -5 -3 -10 -1 -10 4 0 6 -4 11 -10 11
-5 0 -10 -7 -10 -15 0 -8 5 -15 11 -15 5 0 7 -4 4 -10 -14 -22 14 -8 29 15 20
30 20 35 0 35 -8 0 -13 -4 -9 -9z"/>
<path d="M2990 964 c0 -3 5 -14 10 -25 10 -17 8 -18 -16 -9 -37 14 -40 7 -14
-30 24 -34 38 -35 21 -1 -11 19 -10 20 15 11 36 -14 40 -7 14 29 -20 30 -30
38 -30 25z"/>
<path d="M2410 930 c-27 -27 -22 -55 10 -55 15 0 24 -5 22 -13 -4 -21 27 -26
47 -8 34 31 9 73 -26 45 -14 -12 -15 -11 -9 7 4 13 1 26 -8 33 -12 10 -19 8
-36 -9z m30 -20 c-6 -11 -17 -20 -25 -20 -19 0 -19 5 1 24 22 23 37 20 24 -4z
m45 -39 c-3 -12 -11 -21 -16 -21 -14 0 -11 38 4 43 17 6 20 2 12 -22z"/>
<path d="M2907 908 c-20 -11 -22 -39 -5 -56 29 -29 78 0 59 36 -13 25 -33 32
-54 20z m38 -33 c0 -28 -29 -25 -33 3 -3 19 0 23 15 20 10 -2 18 -12 18 -23z"/>
<path d="M2535 882 c-5 -4 -11 -23 -12 -42 l-2 -35 15 34 c16 35 15 55 -1 43z"/>
<path d="M2843 879 c-19 -7 -21 -12 -12 -41 5 -18 9 -34 9 -36 0 -2 4 -1 10 3
5 3 6 13 3 21 -5 14 -3 15 15 5 27 -14 39 -14 24 1 -7 7 -12 20 -12 29 0 23
-10 28 -37 18z m27 -19 c0 -5 -7 -10 -15 -10 -8 0 -15 5 -15 10 0 6 7 10 15
10 8 0 15 -4 15 -10z"/>
<path d="M2590 846 c-12 -32 -5 -52 21 -59 24 -6 24 2 2 19 -17 12 -16 13 7
14 l25 1 -25 11 -25 11 30 7 c17 4 25 8 18 9 -6 0 -18 4 -27 7 -11 4 -19 -2
-26 -20z"/>
<path d="M2784 862 c-7 -4 -14 -18 -16 -32 l-4 -25 -13 26 c-15 31 -38 33 -47
6 -6 -20 -7 -19 -25 4 -13 17 -19 19 -20 9 0 -8 -2 -25 -5 -37 -2 -13 1 -23 6
-23 6 0 10 8 11 18 0 14 3 13 16 -5 20 -30 33 -29 27 1 -6 37 15 42 30 6 11
-26 15 -29 25 -16 7 8 13 24 14 35 2 31 14 26 22 -9 4 -17 10 -28 14 -25 8 5
-10 75 -19 75 -3 0 -10 -4 -16 -8z"/>
<path d="M3994 1870 c-184 -48 -347 -204 -405 -390 -26 -82 -32 -220 -13 -302
48 -203 204 -371 400 -429 79 -24 238 -28 318 -10 105 25 195 77 275 159 163
166 214 379 141 597 -38 113 -122 224 -224 294 -41 29 -125 70 -155 76 -9 2
-32 9 -51 14 -55 17 -206 12 -286 -9z"/>
</g>
</svg>
